<!-- Generated by IcoMoon.io -->
<svg version="1.1" xmlns="http://www.w3.org/2000/svg" width="40" height="32" viewBox="0 0 40 32">
<title>logo-5</title>
<path fill="#afb1b8" d="M3.056 26.742c0.157 0.194 0.24 0.438 0.236 0.688l0.001 0.053c0 0.324-0.141 0.615-0.365 0.815l-0.001 0.001c-0.261 0.2-0.593 0.321-0.953 0.321-0.038 0-0.076-0.001-0.113-0.004l0.005 0h-1.865v-4.361h1.827c0.031-0.002 0.068-0.004 0.105-0.004 0.343 0 0.66 0.112 0.917 0.301l-0.004-0.003-0.004-0.003c0.217 0.184 0.355 0.456 0.355 0.761 0 0.020-0.001 0.040-0.002 0.060l0-0.003v-0.003c0.011 0.24-0.065 0.477-0.212 0.667-0.139 0.169-0.331 0.29-0.549 0.339l-0.007 0.001c0.247 0.046 0.471 0.177 0.63 0.373zM0.868 26.084h0.78c0.017 0.001 0.037 0.002 0.056 0.002 0.166 0 0.319-0.055 0.442-0.148l-0.002 0.001c0.104-0.095 0.169-0.231 0.169-0.383 0-0 0-0 0-0v0l-0.002-0.045v0.002l0.001-0.037c0-0 0-0 0-0.001 0-0.153-0.064-0.291-0.167-0.388l-0-0c-0.124-0.093-0.28-0.15-0.45-0.15-0.023 0-0.045 0.001-0.067 0.003l0.003-0h-0.764v1.144zM2.222 27.756c0.114-0.1 0.186-0.245 0.186-0.408v-0l-0.001-0.036v0.002l0.001-0.032c0-0 0-0 0-0 0-0.166-0.073-0.314-0.188-0.415l-0.001-0.001-0.001-0.001c-0.132-0.099-0.298-0.159-0.479-0.159-0 0-0.001 0-0.001 0h0l-0.054 0.002h-0.816v1.199h0.829c0.015 0.001 0.032 0.001 0.049 0.001 0.178 0 0.343-0.057 0.477-0.154l-0.002 0.002zM6.79 28.617l-1.016-1.704h-0.382v1.704h-0.874v-4.361h1.654c0.035-0.003 0.075-0.004 0.115-0.004 0.397 0 0.761 0.142 1.043 0.379l-0.003-0.002-0.003-0.002c0.246 0.251 0.398 0.595 0.398 0.974 0 0.314-0.104 0.605-0.28 0.838l0.003-0.003 0.003-0.004c-0.199 0.229-0.472 0.388-0.781 0.442l-0.008 0.001 1.083 1.743h-0.95zM5.392 26.318h0.715c0.497 0 0.745-0.22 0.745-0.66l0.001-0.037c0-0 0-0.001 0-0.001 0-0.176-0.070-0.335-0.184-0.452l0 0c-0.133-0.112-0.305-0.18-0.494-0.18-0.025 0-0.050 0.001-0.075 0.004l0.003-0h-0.721l0.009 1.328zM11.568 27.739h-1.742l-0.308 0.878h-0.916l1.6-4.313h0.991l1.593 4.312h-0.916l-0.301-0.878zM11.335 27.079l-0.637-1.84-0.637 1.84h1.273zM17.55 28.617h-0.869l-1.946-2.965v2.965h-0.865v-4.361h0.865l1.946 2.982v-2.982h0.868v4.361zM22.502 27.573c-0.182 0.33-0.45 0.593-0.775 0.764l-0.010 0.005c-0.335 0.173-0.731 0.275-1.151 0.275-0.024 0-0.049-0-0.073-0.001l0.004 0h-1.546v-4.361l1.613-0.001c0.42 0 0.817 0.1 1.168 0.277l-0.015-0.007c0.332 0.168 0.606 0.433 0.786 0.761 0.171 0.333 0.272 0.727 0.272 1.144s-0.1 0.811-0.278 1.158l0.007-0.014zM21.509 27.469c0.239-0.278 0.384-0.642 0.384-1.041s-0.145-0.763-0.386-1.043l0.002 0.002c-0.263-0.232-0.611-0.374-0.991-0.374-0.035 0-0.070 0.001-0.104 0.004l0.005-0h-0.599v2.823h0.603c0.029 0.002 0.063 0.003 0.097 0.003 0.381 0 0.728-0.142 0.992-0.377l-0.002 0.001-0.002 0.001zM12.111 0s11.201 4.246 10.964 10.39v10.392s-11.193-4.248-10.959-10.392l-0.005-10.39zM33.053 18.349c1.984-1.396 4.384-2.337 6.981-2.622l0.136-0.012v-3.253c-2.995 1.181-5.437 3.227-7.081 5.827l-0.035 0.060z"></path>
<path fill="#afb1b8" d="M31.782 19.329c1.749-3.487 4.693-6.158 8.283-7.513l0.105-0.035v-9.373s-15.952 6.048-15.615 14.797v14.796s0.711-0.27 1.829-0.778c0-0.473 0-0.95 0.050-1.43 0.349-4.197 2.334-7.872 5.307-10.43l0.020-0.017 0.021-0.017z"></path>
<path fill="#afb1b8" d="M30.266 24.825c0.093-1.118 0.291-2.149 0.586-3.138l-0.028 0.108c-2.040 2.394-3.306 5.503-3.378 8.906l-0 0.015v0.016c1.364-0.65 2.441-1.23 3.49-1.853l-0.204 0.112-0.218 0.118c-0.191-0.908-0.3-1.952-0.3-3.021 0-0.445 0.019-0.885 0.056-1.32l-0.004 0.057zM30.9 24.878c-0.031 0.36-0.049 0.78-0.049 1.203 0 0.979 0.095 1.935 0.276 2.861l-0.015-0.094-0.015-0.092c4.358-2.619 9.255-6.664 9.067-11.553v-0.426c-3.248 0.374-6.111 1.79-8.302 3.898l0.005-0.004 0.005-0.005c-0.501 1.219-0.846 2.632-0.965 4.108l-0.003 0.050-0.003 0.052z"></path>
</svg>
