<!-- Generated by IcoMoon.io -->
<svg version="1.1" xmlns="http://www.w3.org/2000/svg" width="62" height="32" viewBox="0 0 62 32">
<title>logo-6</title>
<path fill="#afb1b8" d="M31.123 14.854c-0.251-0.358-0.401-0.802-0.401-1.282 0-0.055 0.002-0.109 0.006-0.162l-0 0.007v0.007-2.074c0-0.637 0.132-1.12 0.394-1.45s0.715-0.495 1.356-0.494c0.602 0 1.030 0.141 1.282 0.422 0.275 0.359 0.41 0.798 0.379 1.241v0.487h-1.077v-0.494l0.001-0.064c0-0.148-0.012-0.293-0.034-0.435l0.002 0.016c-0.017-0.115-0.073-0.214-0.153-0.287l-0-0c-0.094-0.071-0.213-0.113-0.342-0.113-0.001 0-0.002 0-0.003 0h0l-0.048 0.002h0.002c-0.014-0.001-0.030-0.002-0.046-0.002-0.138 0-0.265 0.045-0.368 0.122l0.002-0.001 0.002-0.001c-0.089 0.080-0.153 0.188-0.177 0.309l-0.001 0.004-0.001 0.004c-0.027 0.14-0.042 0.302-0.042 0.467 0 0.016 0 0.032 0 0.048l-0-0.002v2.518c-0.002 0.027-0.003 0.058-0.003 0.089 0 0.228 0.053 0.443 0.149 0.634l-0.004-0.008-0.004-0.008c0.054 0.074 0.126 0.132 0.209 0.17l0.003 0.001 0.003 0.001c0.063 0.028 0.137 0.044 0.214 0.044 0.023 0 0.046-0.001 0.068-0.004l-0.003 0h-0.003c0.013 0.001 0.029 0.002 0.045 0.002 0.128 0 0.245-0.044 0.338-0.118l-0.001 0.001-0.001 0.001c0.083-0.078 0.141-0.182 0.16-0.3l0-0.003v-0.003c0.026-0.167 0.037-0.336 0.034-0.504v-0.511h1.077v0.466c0.003 0.039 0.004 0.085 0.004 0.132 0 0.443-0.143 0.853-0.385 1.185l0.004-0.006 0.004-0.006c-0.247 0.308-0.669 0.462-1.288 0.462s-1.088-0.164-1.354-0.506zM35.608 14.876c-0.272-0.323-0.408-0.794-0.408-1.416v-2.183c0-0.616 0.136-1.082 0.408-1.399s0.726-0.474 1.364-0.473c0.633 0 1.085 0.158 1.358 0.473 0.271 0.317 0.41 0.783 0.41 1.399v2.183c0 0.616-0.139 1.089-0.415 1.414-0.277 0.325-0.727 0.487-1.354 0.487s-1.090-0.164-1.364-0.485zM37.473 14.352c0.097-0.202 0.142-0.424 0.129-0.646v-2.672l0.002-0.072c0-0 0-0.001 0-0.001 0-0.207-0.049-0.402-0.136-0.575l0.003 0.007 0.003 0.007c-0.055-0.075-0.128-0.134-0.213-0.172l-0.003-0.001-0.003-0.001c-0.062-0.027-0.134-0.043-0.209-0.043-0.028 0-0.054 0.002-0.081 0.006l0.003-0h0.003c-0.022-0.003-0.048-0.005-0.074-0.005-0.078 0-0.151 0.016-0.218 0.045l0.004-0.001 0.004-0.001c-0.089 0.038-0.163 0.097-0.218 0.171l-0.001 0.001-0.001 0.001c-0.083 0.162-0.131 0.353-0.131 0.556 0 0.027 0.001 0.054 0.003 0.081l-0-0.004v2.685c-0.002 0.024-0.002 0.051-0.002 0.079 0 0.207 0.049 0.402 0.135 0.575l-0.003-0.007c0.061 0.066 0.135 0.119 0.218 0.156l0.004 0.002 0.004 0.002c0.081 0.037 0.177 0.058 0.277 0.058 0.102 0 0.199-0.022 0.286-0.062l-0.004 0.002-0.005 0.002c0.089-0.039 0.164-0.093 0.226-0.16l0-0v-0.013zM40.035 9.468h1.16l0.872 4.028 0.892-4.028h1.128l0.113 5.813h-0.833l-0.089-4.040-0.861 4.040h-0.669l-0.892-4.054-0.083 4.054h-0.843l0.104-5.812zM45.5 9.468h1.806c1.040 0 1.56 0.55 1.56 1.651 0 1.054-0.547 1.58-1.643 1.579h-0.614v2.583h-1.115l0.007-5.812zM47.043 11.952c0.11 0.014 0.222 0.004 0.327-0.028 0.11-0.033 0.206-0.086 0.287-0.156l-0.001 0.001c0.104-0.156 0.165-0.348 0.165-0.554 0-0.036-0.002-0.072-0.006-0.108l0 0.004 0.001-0.067c0-0.163-0.020-0.322-0.057-0.474l0.003 0.014c-0.017-0.062-0.045-0.116-0.084-0.162l0.001 0.001 0.001 0.001c-0.038-0.047-0.085-0.085-0.137-0.115l-0.002-0.001-0.002-0.001c-0.128-0.059-0.277-0.094-0.435-0.094-0.022 0-0.045 0.001-0.067 0.002l0.003-0h-0.43v1.736h0.433zM50.474 9.468h1.197l1.229 5.813h-1.039l-0.243-1.341h-1.068l-0.25 1.341h-1.055l1.229-5.812zM51.497 13.267l-0.417-2.44-0.417 2.44h0.835zM53.892 9.468h0.779l1.494 3.316v-3.316h0.925v5.812h-0.742l-1.503-3.462v3.462h-0.957l0.002-5.812zM59.258 13.064l-1.242-3.588h1.046l0.758 2.305 0.711-2.305h1.023l-1.226 3.588v2.216h-1.071v-2.216zM32.845 17.822v0.304h-0.91v2.362h-0.381v-2.362h-0.914v-0.304h2.205zM35.697 20.488h-0.302c-0.028-0-0.054-0.010-0.075-0.026l0 0c-0.021-0.015-0.038-0.035-0.048-0.059l-0-0.001v-0.001l-0.263-0.633h-1.262l-0.264 0.633c-0.008 0.028-0.022 0.052-0.040 0.072l0-0c-0.021 0.016-0.047 0.025-0.075 0.025-0 0-0.001 0-0.001 0h-0.301l1.115-2.666h0.387l1.128 2.655zM33.85 19.498h1.053l-0.446-1.085c-0.027-0.063-0.055-0.142-0.077-0.223l-0.003-0.013-0.003-0.014-0.042 0.141-0.040 0.111-0.442 1.083zM37.619 20.226c0.070 0.003 0.139 0.003 0.209 0 0.061-0.006 0.12-0.017 0.179-0.032 0.067-0.016 0.123-0.034 0.178-0.055l-0.009 0.003-0.009 0.003c0.049-0.019 0.099-0.042 0.15-0.065v-0.6h-0.451c-0 0-0 0-0 0-0.021 0-0.040-0.008-0.055-0.021l0 0c-0.013-0.011-0.022-0.027-0.022-0.045 0-0 0-0.001 0-0.001v0-0.208h0.865v1.022c-0.132 0.090-0.284 0.163-0.448 0.211l-0.023 0.006c-0.076 0.023-0.167 0.042-0.26 0.054l-0.009 0.001-0.009 0.001c-0.094 0.011-0.203 0.017-0.313 0.017-0.003 0-0.005 0-0.008 0h-0.018c-0.197 0-0.386-0.037-0.56-0.103l0.011 0.004c-0.173-0.066-0.321-0.161-0.447-0.28l0.001 0.001 0.001 0.001c-0.118-0.115-0.214-0.253-0.282-0.406l-0.003-0.008-0.003-0.008c-0.065-0.157-0.103-0.34-0.103-0.532 0-0.001 0-0.002 0-0.003v0-0.034c0-0.195 0.037-0.38 0.105-0.551l-0.004 0.010c0.064-0.158 0.161-0.301 0.287-0.422 0.127-0.12 0.279-0.214 0.446-0.277 0.171-0.063 0.368-0.099 0.574-0.099 0.008 0 0.017 0 0.025 0h-0.001c0.104 0 0.207 0.007 0.31 0.023 0.090 0.014 0.179 0.036 0.266 0.067 0.086 0.031 0.159 0.066 0.228 0.109l-0.005-0.003c0.069 0.042 0.134 0.088 0.195 0.139l-0.108 0.165c-0.009 0.015-0.021 0.027-0.036 0.036l-0 0c-0.014 0.009-0.032 0.014-0.050 0.014-0 0-0 0-0.001 0h0c-0.026-0.001-0.050-0.008-0.071-0.021l0.001 0h0.001c-0.046-0.023-0.083-0.045-0.119-0.069l0.005 0.003 0.005 0.003c-0.041-0.025-0.088-0.049-0.137-0.068l-0.006-0.002-0.007-0.002c-0.055-0.022-0.121-0.042-0.189-0.057l-0.008-0.001-0.008-0.001c-0.079-0.015-0.169-0.023-0.261-0.023-0.002 0-0.005 0-0.007 0h-0.028c-0.15 0-0.293 0.027-0.425 0.077l0.008-0.003c-0.128 0.048-0.238 0.12-0.328 0.211l-0 0c-0.089 0.092-0.16 0.203-0.205 0.326l-0.002 0.006c-0.048 0.132-0.076 0.285-0.076 0.445 0 0.163 0.029 0.318 0.082 0.462l-0.003-0.009-0.003-0.009c0.049 0.125 0.125 0.24 0.223 0.335 0.090 0.090 0.199 0.162 0.32 0.209l0.006 0.002c0.142 0.046 0.292 0.064 0.442 0.053zM41.172 20.184h1.217v0.304h-1.59v-2.666h0.381l-0.009 2.362zM43.656 20.487h-0.381v-2.664h0.381v2.666zM45.074 17.834c0.022 0.013 0.041 0.029 0.057 0.048l0 0 1.63 2.010-0.002-0.048 0.002-0.050v0.002-1.986h0.332v2.676h-0.191l-0.013 0.001c-0.026-0-0.050-0.006-0.072-0.016l0.001 0h0.001c-0.023-0.014-0.043-0.031-0.060-0.050l-0-0-1.628-2.007v2.072h-0.319v-2.665h0.198c0.022 0 0.043 0.004 0.063 0.013zM49.901 17.822v0.294h-1.351v0.88h1.095v0.282h-1.095v0.91h1.351v0.294h-1.743v-2.659h1.743zM9.95 1.359l16.929 4.55v15.946l-16.927-4.547v-15.949zM8.865 0v18.081l19.098 5.135v-18.080l-19.098-5.137z"></path>
<path fill="#afb1b8" d="M19.1 31.61l-19.1-5.139v-18.080l19.1 5.137v18.082z"></path>
<path fill="#afb1b8" d="M9.181 1.155l16.707 4.493-7.105 6.728-16.71-4.495 7.107-6.727zM8.865 0l-8.865 8.392 19.1 5.137 8.863-8.392-19.098-5.137zM20.175 30.593l7.788-7.374-7.788-2.096v9.47z"></path>
</svg>
