<!-- Generated by IcoMoon.io -->
<svg version="1.1" xmlns="http://www.w3.org/2000/svg" width="53" height="32" viewBox="0 0 53 32">
<title>logo-4</title>
<path fill="#afb1b8" d="M10.291 8.050h-0.002c-1.419 0-2.57 1.122-2.57 2.505v0.002c0 1.383 1.151 2.505 2.57 2.505h0.002c1.419 0 2.57-1.122 2.57-2.505v-0.002c0-1.383-1.151-2.504-2.57-2.504zM29.262 7.25c-0.009-2.010-0.844-3.824-2.182-5.12l-0.002-0.002c-1.358-1.316-3.213-2.126-5.256-2.126s-3.897 0.81-5.257 2.127l0.002-0.002c-1.34 1.299-2.175 3.113-2.184 5.121v10.597s14.877-1.614 14.879-10.593v-0.001zM2.51 21.322c0.005 1.398 0.585 2.66 1.517 3.562l0.002 0.002c0.943 0.917 2.231 1.482 3.652 1.482 0.001 0 0.003 0 0.004 0v0c0.001 0 0.002 0 0.003 0 1.422 0 2.711-0.566 3.656-1.484l-0.002 0.002c0.933-0.902 1.514-2.163 1.52-3.56v-7.375s-10.352 1.126-10.352 7.371zM7.686 22.643h-0.003c-0.279 0-0.539-0.083-0.756-0.225l0.005 0.003c-0.217-0.143-0.388-0.341-0.493-0.576l-0.003-0.008-0.003-0.009c-0.066-0.149-0.104-0.322-0.104-0.504 0-0.094 0.010-0.186 0.030-0.275l-0.002 0.008-0.001 0.008c0.053-0.257 0.182-0.492 0.371-0.676 0.185-0.18 0.422-0.308 0.685-0.36l0.009-0.001c0.263-0.051 0.535-0.025 0.783 0.075s0.459 0.269 0.609 0.486c0.143 0.206 0.228 0.46 0.228 0.735 0 0.186-0.039 0.363-0.109 0.522l0.006-0.016c-0.141 0.328-0.401 0.583-0.724 0.714l-0.009 0.003c-0.152 0.064-0.329 0.101-0.515 0.101-0.002 0-0.004 0-0.006 0h-0.001v-0.005zM18.253 21.823h-1.059v1.094h-0.552v-2.675h1.743v0.447h-1.191v0.691h1.058v0.445zM20.903 21.64c0 0.264-0.047 0.494-0.14 0.693s-0.227 0.351-0.401 0.459c-0.162 0.102-0.36 0.162-0.571 0.162-0.001 0-0.003 0-0.004 0h-0.020c-0.009 0-0.020 0-0.031 0-0.423 0-0.789-0.246-0.962-0.603l-0.006-0.012c-0.092-0.192-0.145-0.417-0.145-0.654 0-0.002 0-0.004 0-0.006v0-0.157c0-0.264 0.047-0.496 0.142-0.695 0.17-0.371 0.537-0.624 0.964-0.624 0.012 0 0.024 0 0.036 0.001h-0.002c0.223 0 0.42 0.054 0.594 0.162 0.174 0.107 0.307 0.26 0.402 0.461s0.144 0.431 0.144 0.693v0.119zM20.344 21.518c0-0.28-0.051-0.494-0.151-0.64-0.089-0.133-0.239-0.219-0.408-0.219 0 0-0.001 0-0.001 0h-0.042c-0.169 0-0.317 0.085-0.406 0.214l-0.002 0.004c-0.1 0.143-0.152 0.354-0.153 0.632v0.131c0 0.274 0.050 0.486 0.151 0.636s0.245 0.226 0.434 0.226h0.022c0 0 0 0 0 0 0.168 0 0.315-0.085 0.403-0.213l0.002-0.004c0.099-0.146 0.149-0.358 0.151-0.636v-0.131zM22.691 22.215v-0.016c0 0 0 0 0 0 0-0.090-0.043-0.17-0.109-0.221h-0.002c-0.114-0.074-0.246-0.135-0.387-0.175l-0.010-0.002c-0.182-0.056-0.338-0.121-0.486-0.198l0.016 0.007 0.016 0.008c-0.304-0.164-0.456-0.385-0.456-0.663 0-0.144 0.040-0.274 0.121-0.387s0.199-0.203 0.351-0.267c0.153-0.063 0.324-0.095 0.515-0.095s0.361 0.035 0.511 0.105c0.15 0.069 0.265 0.166 0.348 0.292s0.125 0.27 0.125 0.43h-0.552c0-0.007 0.001-0.014 0.001-0.022 0-0.104-0.044-0.198-0.115-0.263v0c-0.080-0.065-0.184-0.105-0.297-0.105-0.010 0-0.020 0-0.030 0.001h0.001c-0.009-0.001-0.020-0.001-0.031-0.001-0.106 0-0.204 0.033-0.285 0.089l0.002-0.001c-0.069 0.049-0.113 0.128-0.113 0.218 0 0 0 0 0 0v0 0.007c0 0.087 0.044 0.159 0.131 0.218 0.088 0.059 0.218 0.114 0.388 0.166 0.314 0.094 0.542 0.211 0.685 0.351s0.215 0.314 0.215 0.521c0 0.232-0.088 0.414-0.263 0.546s-0.411 0.197-0.708 0.197c-0.206 0-0.393-0.038-0.562-0.112-0.158-0.068-0.288-0.173-0.384-0.305l-0.004-0.006c-0.083-0.123-0.133-0.275-0.133-0.439 0 0 0-0.001 0-0.001v0-0.015h0.553c0 0.295 0.176 0.443 0.529 0.443 0.009 0.001 0.020 0.001 0.031 0.001 0.102 0 0.198-0.030 0.278-0.081l-0.002 0.001c0.067-0.048 0.11-0.126 0.11-0.213 0 0 0 0 0-0.001v0-0.011zM25.634 20.688h-0.819v2.229h-0.552v-2.229h-0.809v-0.447h2.18v0.447zM27.561 21.758h-1.059v0.717h1.243v0.443h-1.794v-2.675h1.791v0.447h-1.239v0.637h1.059v0.432zM29.059 21.938h-0.439v0.979h-0.552v-2.675h0.995c0.316 0 0.56 0.070 0.732 0.211s0.257 0.34 0.257 0.597c0 0.182-0.040 0.335-0.119 0.458-0.088 0.127-0.208 0.225-0.349 0.286l-0.010 0.004 0.579 1.094v0.026h-0.592l-0.502-0.979zM28.62 21.491h0.445c0.009 0.001 0.019 0.001 0.029 0.001 0.111 0 0.214-0.040 0.293-0.107l-0.001 0.001c0.071-0.069 0.115-0.165 0.115-0.272v0l-0.001-0.021v0.001c0-0.007 0.001-0.015 0.001-0.023 0-0.106-0.042-0.203-0.11-0.274v0c-0.071-0.073-0.181-0.109-0.329-0.109h-0.444v0.803zM31.962 21.974v0.943h-0.552v-2.675h1.045c0.201 0 0.377 0.036 0.53 0.11s0.27 0.178 0.353 0.314c0.077 0.128 0.123 0.282 0.123 0.447 0 0.005 0 0.011 0 0.016v-0.001c0 0.262-0.090 0.469-0.27 0.621s-0.427 0.226-0.745 0.226h-0.483zM31.962 21.528h0.493c0.146 0 0.257-0.035 0.333-0.104s0.116-0.166 0.116-0.294v-0.019c0 0 0-0.001 0-0.001 0-0.115-0.044-0.22-0.117-0.298v0c-0.078-0.077-0.186-0.125-0.305-0.125-0.005 0-0.011 0-0.016 0h-0.504v0.841zM35.45 21.758h-1.059v0.717h1.242v0.443h-1.794v-2.675h1.791v0.447h-1.239v0.637h1.059v0.432zM38.009 20.688h-0.819v2.229h-0.552v-2.229h-0.808v-0.447h2.18v0.447zM39.935 21.758h-1.059v0.717h1.242v0.443h-1.794v-2.675h1.791v0.447h-1.239v0.637h1.059v0.432zM41.434 21.938h-0.439v0.979h-0.552v-2.675h0.995c0.316 0 0.56 0.070 0.732 0.211s0.257 0.34 0.257 0.597c0 0.182-0.040 0.335-0.119 0.458-0.088 0.127-0.208 0.225-0.348 0.286l-0.010 0.004 0.578 1.094v0.026h-0.592l-0.502-0.979zM40.995 21.491h0.446c0.009 0.001 0.019 0.001 0.029 0.001 0.111 0 0.214-0.040 0.293-0.107l-0.001 0.001c0.070-0.069 0.114-0.165 0.114-0.271 0 0 0 0 0-0.001v0l-0.001-0.022v0.001c0-0.007 0.001-0.015 0.001-0.023 0-0.106-0.041-0.203-0.109-0.274v0c-0.072-0.073-0.181-0.109-0.329-0.109h-0.443v0.803zM44.235 22.215v-0.015c0 0 0 0 0 0 0-0.090-0.043-0.171-0.109-0.222h-0.002c-0.073-0.056-0.206-0.115-0.397-0.177-0.182-0.056-0.338-0.121-0.486-0.198l0.032 0.016c-0.304-0.164-0.456-0.385-0.456-0.663 0-0.144 0.041-0.274 0.122-0.387s0.199-0.203 0.351-0.267c0.152-0.063 0.324-0.095 0.514-0.095s0.361 0.035 0.511 0.105c0.144 0.064 0.262 0.165 0.346 0.289l0.002 0.003c0.083 0.126 0.125 0.27 0.125 0.43h-0.552c0-0.007 0.001-0.014 0.001-0.022 0-0.104-0.044-0.198-0.115-0.263v0c-0.081-0.065-0.184-0.105-0.297-0.105-0.010 0-0.020 0-0.030 0.001h0.001c-0.009-0.001-0.020-0.001-0.031-0.001-0.106 0-0.204 0.033-0.285 0.089l0.002-0.001c-0.068 0.049-0.112 0.128-0.112 0.218 0 0 0 0 0 0v0 0.007c0 0.087 0.044 0.159 0.13 0.218 0.088 0.059 0.218 0.114 0.388 0.166 0.314 0.094 0.543 0.211 0.686 0.351s0.215 0.314 0.215 0.521c0 0.232-0.088 0.414-0.263 0.546s-0.411 0.197-0.708 0.197c-0.206 0-0.393-0.038-0.562-0.112-0.158-0.068-0.288-0.173-0.384-0.305l-0.004-0.006c-0.083-0.123-0.133-0.275-0.133-0.439 0 0 0-0.001 0-0.001v0-0.015h0.553c0 0.295 0.177 0.443 0.53 0.443 0.009 0.001 0.020 0.001 0.031 0.001 0.102 0 0.198-0.030 0.278-0.081l-0.002 0.001c0.067-0.048 0.11-0.126 0.11-0.213 0 0 0 0 0-0.001v0-0.011z"></path>
</svg>
